<svg xmlns="http://www.w3.org/2000/svg" viewBox="0 0 320 220">
  <defs>
    <linearGradient id="bg" x1="0" y1="0" x2="1" y2="1"><stop stop-color="#ecece7"/><stop offset="1" stop-color="#9f9f99"/></linearGradient>
    <linearGradient id="glass" x1="0" y1="0" x2="1" y2="1"><stop stop-color="#fafafa"/><stop offset=".55" stop-color="#bdbdb8"/><stop offset="1" stop-color="#777773"/></linearGradient>
  </defs>
  <rect width="320" height="220" fill="url(#bg)"/>
  <ellipse cx="162" cy="190" rx="103" ry="18" fill="#222" opacity=".18"/>
  <rect x="76" y="66" width="80" height="108" rx="8" fill="#3c3c3a"/>
  <rect x="86" y="76" width="60" height="88" rx="4" fill="#676762"/>
  <rect x="176" y="51" width="70" height="123" rx="12" fill="url(#glass)" stroke="#323230" stroke-width="4"/>
  <rect x="192" y="33" width="38" height="26" rx="5" fill="#2f2f2d"/>
  <rect x="188" y="89" width="46" height="44" rx="5" fill="#e7e7e3" stroke="#3b3b39" stroke-width="2"/>
  <circle cx="211" cy="111" r="11" fill="none" stroke="#4a4a47" stroke-width="3"/>
  <path d="M204 111h14M211 104v14" stroke="#4a4a47" stroke-width="2"/>
  <path d="M181 65c11-7 21-10 31-10" stroke="#fff" stroke-width="4" stroke-linecap="round" opacity=".6"/>
  <rect x="42" y="174" width="230" height="4" fill="#444" opacity=".35"/>
</svg>